<?xml version="1.0" encoding="UTF-8" standalone="no"?>
<svg
   xmlns:dc="http://purl.org/dc/elements/1.1/"
   xmlns:cc="http://creativecommons.org/ns#"
   xmlns:rdf="http://www.w3.org/1999/02/22-rdf-syntax-ns#"
   xmlns:svg="http://www.w3.org/2000/svg"
   xmlns="http://www.w3.org/2000/svg"
   xmlns:xlink="http://www.w3.org/1999/xlink"
   xmlns:sodipodi="http://sodipodi.sourceforge.net/DTD/sodipodi-0.dtd"
   xmlns:inkscape="http://www.inkscape.org/namespaces/inkscape"
   version="1.1"
   width="256"
   height="256"
   viewBox="0 0 256 256"
   xml:space="preserve"
   id="svg2"
   inkscape:version="0.91 r13725"
   sodipodi:docname="ppr.svg"><metadata
   id="metadata26"><rdf:RDF><cc:Work
       rdf:about=""><dc:format>image/svg+xml</dc:format><dc:type
         rdf:resource="http://purl.org/dc/dcmitype/StillImage" /><dc:title></dc:title></cc:Work></rdf:RDF></metadata><sodipodi:namedview
   pagecolor="#ffffff"
   bordercolor="#666666"
   borderopacity="1"
   objecttolerance="10"
   gridtolerance="10"
   guidetolerance="10"
   inkscape:pageopacity="0"
   inkscape:pageshadow="2"
   inkscape:window-width="989"
   inkscape:window-height="725"
   id="namedview24"
   showgrid="false"
   inkscape:zoom="1.84375"
   inkscape:cx="120.35156"
   inkscape:cy="128.20184"
   inkscape:window-x="663"
   inkscape:window-y="121"
   inkscape:window-maximized="0"
   inkscape:current-layer="svg2" />
<desc
   id="desc4">Created with Fabric.js 1.7.22</desc>
<defs
   id="defs6"><linearGradient
   inkscape:collect="always"
   id="linearGradient4168"><stop
     style="stop-color:#000000;stop-opacity:1;"
     offset="0"
     id="stop4170" /><stop
     style="stop-color:#000000;stop-opacity:0;"
     offset="1"
     id="stop4172" /></linearGradient>
<linearGradient
   inkscape:collect="always"
   xlink:href="#linearGradient4168"
   id="linearGradient4174"
   x1="30.296759"
   y1="116.94366"
   x2="182.61948"
   y2="118.02841"
   gradientUnits="userSpaceOnUse"
   gradientTransform="translate(20.61017,-1.6271186)" /></defs>
<g
   transform="translate(128 128) scale(0.72 0.72)"
   id="g8"
   style="">
	<g
   style="stroke: none; stroke-width: 0; stroke-dasharray: none; stroke-linecap: butt; stroke-linejoin: miter; stroke-miterlimit: 10; fill: none; fill-rule: nonzero; opacity: 1;"
   transform="translate(-175.05 -175.05000000000004) scale(3.89 3.89)"
   id="g10">
	<path
   d="M 11.58 54.882 v 31.965 c 0 1.741 1.412 3.153 3.153 3.153 h 60.534 c 1.741 0 3.153 -1.412 3.153 -3.153 V 54.882 C 56.073 47.881 33.792 47.838 11.58 54.882 z"
   style="stroke: none; stroke-width: 1; stroke-dasharray: none; stroke-linecap: butt; stroke-linejoin: miter; stroke-miterlimit: 10; fill: rgb(184,53,53); fill-rule: nonzero; opacity: 1;"
   id="path12"
   stroke-linecap="round"
   transform=" matrix(1 0 0 1 0 0) " />
	<path
   d="M 78.42 54.882 V 18.345 C 69.386 13.658 63.133 7.61 60.075 0 H 14.733 c -1.741 0 -3.153 1.412 -3.153 3.153 v 51.729 H 78.42 z"
   style="stroke: none; stroke-width: 1; stroke-dasharray: none; stroke-linecap: butt; stroke-linejoin: miter; stroke-miterlimit: 10; fill: rgb(233,233,224); fill-rule: nonzero; opacity: 1;"
   id="path14"
   stroke-linecap="round"
   transform=" matrix(1 0 0 1 0 0) " />
	<path
   d="M 78.42 18.345 H 62.948 c -1.587 0 -2.873 -1.286 -2.873 -2.873 V 0 L 78.42 18.345 z"
   style="stroke: none; stroke-width: 1; stroke-dasharray: none; stroke-linecap: butt; stroke-linejoin: miter; stroke-miterlimit: 10; fill: rgb(217,215,202); fill-rule: nonzero; opacity: 1;"
   id="path16"
   stroke-linecap="round"
   transform=" matrix(1 0 0 1 0 0) " />
	<path
   d="M 32.116 62.679 h -5.944 c -0.829 0 -1.5 0.672 -1.5 1.5 v 9.854 v 6.748 c 0 0.828 0.671 1.5 1.5 1.5 s 1.5 -0.672 1.5 -1.5 v -5.248 h 4.444 c 2.392 0 4.338 -1.946 4.338 -4.338 v -4.177 C 36.454 64.625 34.508 62.679 32.116 62.679 z M 33.454 71.194 c 0 0.737 -0.6 1.338 -1.338 1.338 h -4.444 v -6.854 h 4.444 c 0.738 0 1.338 0.601 1.338 1.339 V 71.194 z"
   style="stroke: none; stroke-width: 1; stroke-dasharray: none; stroke-linecap: butt; stroke-linejoin: miter; stroke-miterlimit: 10; fill: rgb(249,249,249); fill-rule: nonzero; opacity: 1;"
   id="path18"
   stroke-linecap="round"
   transform=" matrix(1 0 0 1 0 0) " />
	<path
   d="M 46.109 82.28 h -5.652 c -0.829 0 -1.5 -0.672 -1.5 -1.5 V 64.179 c 0 -0.828 0.671 -1.5 1.5 -1.5 h 5.652 c 2.553 0 4.63 2.077 4.63 4.63 V 77.65 C 50.739 80.203 48.662 82.28 46.109 82.28 z M 41.957 79.28 h 4.152 c 0.898 0 1.63 -0.731 1.63 -1.63 V 67.309 c 0 -0.898 -0.731 -1.63 -1.63 -1.63 h -4.152 V 79.28 z"
   style="stroke: none; stroke-width: 1; stroke-dasharray: none; stroke-linecap: butt; stroke-linejoin: miter; stroke-miterlimit: 10; fill: rgb(249,249,249); fill-rule: nonzero; opacity: 1;"
   id="path20"
   stroke-linecap="round"
   transform=" matrix(1 0 0 1 0 0) " />
	<path
   d="M 63.828 62.679 h -8.782 c -0.828 0 -1.5 0.672 -1.5 1.5 V 80.78 c 0 0.828 0.672 1.5 1.5 1.5 s 1.5 -0.672 1.5 -1.5 v -6.801 h 4.251 c 0.828 0 1.5 -0.672 1.5 -1.5 s -0.672 -1.5 -1.5 -1.5 h -4.251 v -5.301 h 7.282 c 0.828 0 1.5 -0.672 1.5 -1.5 S 64.656 62.679 63.828 62.679 z"
   style="stroke: none; stroke-width: 1; stroke-dasharray: none; stroke-linecap: butt; stroke-linejoin: miter; stroke-miterlimit: 10; fill: rgb(249,249,249); fill-rule: nonzero; opacity: 1;"
   id="path22"
   stroke-linecap="round"
   transform=" matrix(1 0 0 1 0 0) " />
</g>
</g>
<text
   xml:space="preserve"
   style="font-style:normal;font-weight:normal;font-size:40px;line-height:125%;font-family:sans-serif;letter-spacing:0px;word-spacing:0px;opacity:1;fill:url(#linearGradient4174);fill-opacity:1;stroke:none;stroke-width:1px;stroke-linecap:butt;stroke-linejoin:miter;stroke-opacity:1"
   x="48.271187"
   y="108.47457"
   id="text3354"
   sodipodi:linespacing="125%"><tspan
     sodipodi:role="line"
     id="tspan3356"
     x="48.271187"
     y="108.47457"
     style="font-style:normal;font-variant:normal;font-weight:bold;font-stretch:normal;font-family:Calibri;-inkscape-font-specification:'Calibri Bold';fill:url(#linearGradient4174);fill-opacity:1">Password</tspan><tspan
     sodipodi:role="line"
     x="48.271187"
     y="158.47456"
     style="font-style:normal;font-variant:normal;font-weight:bold;font-stretch:normal;font-family:Calibri;-inkscape-font-specification:'Calibri Bold';fill:url(#linearGradient4174);fill-opacity:1"
     id="tspan3358">********</tspan></text>
</svg>